<?xml version="1.0" standalone="no"?>
<svg xmlns:xlink="http://www.w3.org/1999/xlink" id="wave" style="transform:rotate(0deg); transition: 0.3s" viewBox="0 0 1440 310" version="1.1" xmlns="http://www.w3.org/2000/svg"><defs><linearGradient id="sw-gradient-0" x1="0" x2="0" y1="1" y2="0"><stop stop-color="rgba(255, 0, 200, 1)" offset="0%"/><stop stop-color="rgba(179, 0, 255, 1)" offset="100%"/></linearGradient></defs><path style="transform:translate(0, 0px); opacity:1" fill="url(#sw-gradient-0)" d="M0,279L60,248C120,217,240,155,360,139.5C480,124,600,155,720,186C840,217,960,248,1080,232.5C1200,217,1320,155,1440,113.7C1560,72,1680,52,1800,72.3C1920,93,2040,155,2160,155C2280,155,2400,93,2520,82.7C2640,72,2760,114,2880,134.3C3000,155,3120,155,3240,155C3360,155,3480,155,3600,144.7C3720,134,3840,114,3960,98.2C4080,83,4200,72,4320,67.2C4440,62,4560,62,4680,82.7C4800,103,4920,145,5040,134.3C5160,124,5280,62,5400,31C5520,0,5640,0,5760,36.2C5880,72,6000,145,6120,160.2C6240,176,6360,134,6480,103.3C6600,72,6720,52,6840,77.5C6960,103,7080,176,7200,170.5C7320,165,7440,83,7560,46.5C7680,10,7800,21,7920,36.2C8040,52,8160,72,8280,82.7C8400,93,8520,93,8580,93L8640,93L8640,310L8580,310C8520,310,8400,310,8280,310C8160,310,8040,310,7920,310C7800,310,7680,310,7560,310C7440,310,7320,310,7200,310C7080,310,6960,310,6840,310C6720,310,6600,310,6480,310C6360,310,6240,310,6120,310C6000,310,5880,310,5760,310C5640,310,5520,310,5400,310C5280,310,5160,310,5040,310C4920,310,4800,310,4680,310C4560,310,4440,310,4320,310C4200,310,4080,310,3960,310C3840,310,3720,310,3600,310C3480,310,3360,310,3240,310C3120,310,3000,310,2880,310C2760,310,2640,310,2520,310C2400,310,2280,310,2160,310C2040,310,1920,310,1800,310C1680,310,1560,310,1440,310C1320,310,1200,310,1080,310C960,310,840,310,720,310C600,310,480,310,360,310C240,310,120,310,60,310L0,310Z"/></svg>